<?xml version="1.0" encoding="utf-8"?>
<!-- Generator: Adobe Illustrator 22.1.0, SVG Export Plug-In . SVG Version: 6.00 Build 0)  -->
<!DOCTYPE svg PUBLIC "-//W3C//DTD SVG 1.1//EN" "http://www.w3.org/Graphics/SVG/1.1/DTD/svg11.dtd">
<svg version="1.1" id="Layer_1" xmlns="http://www.w3.org/2000/svg" xmlns:xlink="http://www.w3.org/1999/xlink" x="0px" y="0px"
	 width="260px" height="260px" viewBox="0 0 260 260" enable-background="new 0 0 260 260" xml:space="preserve">
<g>
	<g>
		<g>
			<g>
				<g>
					<g>
						<path fill="#0B0204" d="M220.1,229.9c0,1.2,0.7,1.9,1.9,1.9c1.6,0,2.5-1.2,2.5-3.8v-1.2C223,226.9,220.1,227.4,220.1,229.9z"
							/>
					</g>
				</g>
				<g>
					<g>
						<path fill="#0B0204" d="M193.5,189c1.6,0,2.5-1.2,2.5-3.8V184c-1.5,0-4.4,0.6-4.4,3C191.6,188.2,192.4,189,193.5,189z"/>
					</g>
				</g>
				<g>
					<g>
						<path fill="#0B0204" d="M243.5,227.6l-2.1-5.6l-0.1,0c-0.5-6.1-3.6-9.4-6.3-11.1c-4-2.6-8.9-2.9-12.3-2.9
							c-6.3,0-10.6,1.4-13.3,3.5c-1.7-2.2-4.3-3.5-7.3-3.5c-1.7,0-3.5,0.4-9.5,1.8c-1.5-1.1-3.5-1.8-5.6-1.8h-0.3l-0.3,0
							c-0.3,0-0.7,0.1-1,0.1c2-1.8,3.4-4.2,4-7.1c0.1,0,0.2,0,0.3,0l0.2,0c2.9-0.1,5.3-0.7,7.2-1.6c1.8,1,4,1.6,6.9,1.6
							c7,0,12.2-4.7,12.2-11.3c0-1.7-0.3-3.3-1-5l-2.1-5.6l-0.1,0c-0.5-6.1-3.6-9.4-6.3-11.1c-4-2.6-8.9-2.8-12.3-2.9
							c-6.3,0-10.6,1.4-13.3,3.5c-1.7-2.2-4.3-3.5-7.3-3.5c-1.7,0-3.5,0.4-9.5,1.8c-1.5-1.1-3.5-1.8-5.6-1.8l-0.3,0l-0.3,0
							c-1.4,0.1-2.8,0.3-4.2,0.5c-2.3,0.3-4.6,0.7-7.2,0.7l-1.1,0c-1.4-0.8-3.1-1.3-4.9-1.3c-1.7,0-3.5,0.4-9.5,1.8
							c-1.5-1.1-3.5-1.8-5.6-1.8l-0.3,0l-0.3,0c-1.4,0.1-2.8,0.3-4.2,0.5c-2.2,0.3-4.5,0.6-6.9,0.7c-1.9-1.1-3.9-1.3-4.9-1.3l-0.4,0
							l-0.4,0c-2.1,0.3-4.1,0.6-6,1.1c-1,0.2-2,0.6-2.8,1c-1.6-1.4-3.7-2.2-6.1-2.2l-0.3,0l-0.3,0c-1.7,0.2-3.1,0.4-4.5,0.6
							c-1.9,0.3-3.8,0.6-6.2,0.7l-0.4,0c-1.3-0.7-2.8-1-4.4-1H44.9v6.3c0,1.8,0.1,4.1,1.2,6.4c0.7,1.5,1.7,2.8,2.9,3.7v7.6v0.2
							c0.1,1.9,0.2,3.9,1.1,5.8c1.5,3.4,4.6,5.4,8.4,5.4c1.6,0,3.6-0.4,6.7-1.2c0.8-0.2,1.6-0.4,2.3-0.5c1.9,1.4,4.1,1.7,5.5,1.7
							c1.7,0,3.8-0.5,7-1.2c1-0.2,2-0.5,2.8-0.6l0.5-0.1c1.6,1.2,3.6,1.9,5.8,1.9l0.4,0l0.4,0c2-0.2,4.1-0.6,6.1-1.2
							c1-0.3,1.9-0.6,2.8-1.1c2.1,2,4.7,2.3,6.2,2.3c1.9,0,3.6-0.4,5.7-0.9c1-0.2,2.2-0.5,3.8-0.9l1.4-0.3c1.1,0.8,2.4,1.3,3.9,1.6
							c0,0.4,0,0.7,0,1.1c0,2.4,0.7,4.6,1.9,6.5h0l-0.3,0c-1.7,0.2-3.1,0.4-4.5,0.6c-1.9,0.3-3.7,0.6-6.2,0.7l-3.2,0.1
							c-2.3-0.9-4.8-1.4-7.6-1.4c-4.9,0-9.1,1.2-12.3,3.4c-2.3-3.1-5.9-3.4-7.3-3.4h-0.4l-0.4,0c-2.1,0.3-4.1,0.6-6,1.1
							c-1,0.2-2,0.6-2.8,1.1c-1.6-1.4-3.7-2.2-6.1-2.2H64l-0.3,0c-1.7,0.2-3.1,0.4-4.5,0.6c-1.9,0.3-3.7,0.6-6.2,0.7l-0.4,0
							c-1.3-0.7-2.8-1.1-4.4-1.1H18.4l-0.1,6.2c-0.1,3.5,1,6.5,3,8.7l-2.6-0.5l-1.3,6.1c-0.3,1.3-0.4,2.4-0.4,3.4
							c0,6.9,4.9,11.7,12,11.7c3.7,0,6.5-0.9,8.8-2.4c1.6,1.5,3.8,2.4,6.3,2.4c1.8,0,4.7-0.5,9.7-1.5l0.9-0.2
							c1.5,1.1,3.4,1.7,5.5,1.7h0.4l0.4,0c2-0.2,4.1-0.6,6.1-1.2c1-0.3,1.9-0.6,2.8-1.1c2.1,2,4.7,2.3,6.2,2.3
							c1.9,0,3.6-0.4,5.7-0.9c1.1-0.3,2.2-0.5,3.8-0.9l3-0.6c3,1.6,6.8,2.6,11,2.6c4.4,0,8.1-0.9,10.8-2.6c0.2-0.1,0.4-0.2,0.5-0.4
							c1.7,1.8,4,2.7,6.7,2.7h0.4l0.4,0c2-0.2,4.1-0.6,6.1-1.2c1-0.3,1.9-0.6,2.8-1.1c2.1,2,4.7,2.3,6.2,2.3c1.9,0,3.6-0.4,5.7-0.9
							c1.1-0.3,2.2-0.5,3.8-0.9l1.4-0.3c1.1,0.8,2.5,1.3,3.9,1.6c0,0.4,0,0.7,0,1.1c0,6.6,5.2,11.8,11.8,11.8h6.1l0.1-2.5
							c1.5,0.3,3.4,0.7,5.5,0.7c4.5,0,8.3-1.8,10.7-4.8c1.9,3.9,5.9,6.6,10.6,6.6h6.1l0.1-2.5c1.5,0.3,3.4,0.7,5.5,0.7
							c6.9,0,12-4.2,13.4-10.5c0.1,0,0.2,0,0.3,0l0.1,0c2.9-0.1,5.3-0.7,7.2-1.6c1.8,1,4,1.6,6.9,1.6c7.1,0,12.2-4.7,12.2-11.3
							C244.4,230.9,244.1,229.3,243.5,227.6z M72.8,194.5c-2.8,0-3.1-2.6-3.1-5.1v-11.8l-3.3,0c-0.5,0-0.6,0.1-0.6,0.6v9.9
							c0.1,1.8,0.6,3.4,1.1,4.7c-2.8,0.6-7,1.7-8.5,1.7c-2.8,0-3.1-2.6-3.2-5.1v-11.8c-3.8-0.1-4-3.6-4-6l26,0
							c2.8,0,3.1,2.5,3.2,4.9l0,11.6c0.1,1.8,0.6,3.4,1,4.7C78.6,193.4,74.4,194.5,72.8,194.5z M44,237.4c-2.8,0-3.1-2.6-3.2-5.1
							v-11.9h-1.3c-0.5,0-0.6,0.2-0.6,0.9c-0.3,12.3-3.6,16.1-9.9,16.1c-3.5,0-5.7-2-5.7-5.4c0-0.6,0.1-1.2,0.3-2.1
							c0.4,0.1,0.9,0.1,1,0.1c4.2,0,4.5-6.5,4.5-9.8c-3.6-0.2-4.5-3.5-4.5-5.7h23.7c2.8,0,3.1,2.5,3.2,4.9l0,12
							c0.1,1.9,0.5,3.4,1,4.6C49.7,236.6,45.5,237.4,44,237.4z M75.9,237.4c-2.6,0-3-2.6-3-5.1v-7.4l-3.9,8.7
							c-0.9,1.7-2.2,2.5-3.6,2.8c-1.8,0.5-3.5,0.8-5.3,1c-2.9,0-3-2.5-3-4.4v-11.6c-3.7-0.1-3.7-3.5-3.7-5.8c4.6-0.2,7.3-0.9,11-1.3
							c2.8,0,2.9,2.3,2.9,4.3v7.8c1.2-2.4,2.8-6,4-8.4c0.9-1.7,2.1-2.4,3.4-2.7c1.8-0.4,3.6-0.7,5.4-0.9c2.9,0,3,2.4,3,4.4v12.4
							c0.1,1.8,0.5,3.4,1,4.7C79.5,236.7,77.7,237.4,75.9,237.4z M105.7,225.7c-0.6,0-1.3-0.1-2-0.3c-0.1-2.4-2.1-3.1-3.8-3.1
							c-2.6,0-3.6,1.7-3.6,3.6c0,2.3,1.3,3.6,4.6,3.6c2.5,0,4.7-0.7,6.1-2.1c1.5,0.9,2.3,2.7,2.3,4.4c0,3.6-3.4,5.9-10.1,5.9
							c-8.9,0-13.1-4.4-13.1-11c0-7.2,4.4-12.3,13.4-12.3c5.7,0,10.6,3.3,10.6,7.3C110.2,223.7,108.8,225.7,105.7,225.7z
							 M192.1,178.6c-2.4,0-5.2,0.6-6.7,1.8c-1.3-0.8-2.2-2.2-2.2-3.8c0-3.3,4.4-5.2,11.1-5.2c7.2,0,12.3,1.8,12.3,9.5v4.5
							c0,1.4,0.7,1.8,1.4,1.8c0.3,0,0.8-0.1,1.2-0.3c0.3,0.9,0.5,1.8,0.5,2.8c0,3-2.4,5-5.9,5c-2.9,0-5.1-0.8-6.4-4.2
							c-1.5,2.8-4.2,4.1-7.8,4.2c-4.5,0-8.2-2.1-8.2-6.9c0-5.3,4.9-7.2,9.9-7.2c2,0,3.3,0.3,4.7,0.7
							C195.9,179,194,178.6,192.1,178.6z M158.5,171.4c2.9,0,2.9,2.3,2.9,4.3v12c0,0.5,0.1,0.6,0.6,0.6l4.1,0v-10.5
							c-0.1-1.8-0.6-3.4-1.1-4.6c5.4-1.2,7.6-1.7,8.6-1.7c2.8,0,3,2.5,3.1,5l0,14.1c0,0.3,0,0.4,0.4,0.5c4.8,0.5,6.3,3.4,6.3,6.6
							c0,5.8-3.9,7.7-7.5,7.7c-3,0-5.6-1.2-8.3-1.2c-1.8,0-3.3,0.6-3.4,3c-3.4,0-5.4-2.7-5.4-5.5c0-3,2.3-5.8,6.6-5.8
							c3.5,0,6.2,1.5,8.6,1.5c1.3,0,2.1-0.5,2.1-1.7c0-0.7-0.4-1.3-1.3-1.3h-20.5c-3.2,0-3.5-2.6-3.6-5.1l0-10.6
							c-3.8-0.1-4-3.5-4-5.8C151.2,172.6,155,171.7,158.5,171.4z M104.7,194.5c-2.6,0-3-2.6-3-5.1V182l-3.9,8.7
							c-0.9,1.7-2.2,2.5-3.6,2.8c-1.8,0.5-3.5,0.8-5.3,1c-2.9,0-3-2.5-3-4.4v-11.6c-3.7-0.1-3.7-3.5-3.7-5.8c4.6-0.2,7.3-0.9,11-1.3
							c2.8,0,2.9,2.3,2.9,4.3v7.8c1.2-2.4,2.8-6,4-8.4c0.9-1.7,2.1-2.4,3.4-2.7c1.8-0.4,3.6-0.7,5.4-0.9c2.9,0,3,2.4,3,4.4v12.4
							c0.1,1.8,0.5,3.4,1,4.7C108.4,193.9,106.6,194.5,104.7,194.5z M121.3,194.2c-3.2,0-3.5-2.6-3.6-5.1v-10.6
							c-3.8-0.1-4-3.5-4-5.8c4.5-0.1,8.2-0.9,11.7-1.3c2.9,0,2.9,2.3,2.9,4.3v12c0,0.5,0.1,0.6,0.6,0.6l4.1,0v-10.5
							c-0.1-1.8-0.6-3.4-1.1-4.6c5.4-1.2,7.6-1.7,8.6-1.7c2.8,0,3,2.5,3.1,5v14.1c0,0.3,0,0.4,0.4,0.5c4.8,0.5,6.3,3.4,6.3,6.6
							c0,5.8-3.9,7.7-7.5,7.7c-3,0-5.6-1.2-8.3-1.2c-1.8,0-3.3,0.6-3.4,3c-3.4,0-5.4-2.7-5.4-5.5c0-3,2.3-5.8,6.6-5.8
							c3.5,0,6.2,1.5,8.6,1.5c1.3,0,2.1-0.5,2.1-1.7c0-0.7-0.4-1.3-1.3-1.3H121.3z M133.2,237.4c-2.6,0-3-2.6-3-5.1v-7.4l-3.9,8.7
							c-0.9,1.7-2.2,2.5-3.6,2.8c-1.8,0.5-3.5,0.8-5.3,1c-2.9,0-3-2.5-3-4.4v-11.6c-3.7-0.1-3.7-3.5-3.7-5.8c4.6-0.2,7.3-0.9,11-1.3
							c2.8,0,2.9,2.3,2.9,4.3v7.8c1.2-2.4,2.8-6,4-8.4c0.9-1.7,2.1-2.4,3.4-2.7c1.8-0.4,3.6-0.7,5.4-0.9c2.9,0,3,2.4,3,4.4l0,12.4
							c0.1,1.8,0.5,3.4,1,4.7C136.9,236.7,135,237.4,133.2,237.4z M171.4,248.1c-3,0-5.6-1.2-8.3-1.2c-1.8,0-3.3,0.6-3.4,3
							c-3.4,0-5.4-2.7-5.4-5.5c0-3,2.3-5.8,6.6-5.8c3.5,0,6.2,1.5,8.6,1.5c1.3,0,2.1-0.5,2.1-1.7c0-0.7-0.4-1.3-1.3-1.3h-20.5
							c-3.2,0-3.5-2.6-3.6-5.1v-10.6c-3.8-0.1-4-3.5-4-5.8c4.5-0.1,8.2-0.9,11.7-1.3c2.9,0,2.9,2.3,2.9,4.3v12
							c0,0.5,0.1,0.6,0.6,0.6h4.1v-10.5c-0.1-1.8-0.6-3.4-1.1-4.6c5.4-1.2,7.6-1.7,8.6-1.7c2.8,0,3.1,2.5,3.1,5v14.1
							c0,0.3,0,0.4,0.4,0.5c4.8,0.5,6.3,3.4,6.3,6.6C178.8,246.2,174.9,248.1,171.4,248.1z M204.4,248.1c-3,0-5.6-1.2-8.3-1.2
							c-1.8,0-3.3,0.6-3.4,3c-3.4,0-5.4-2.7-5.4-5.5c0-3,2.3-5.8,6.6-5.8c3.5,0,6.2,1.5,8.6,1.5c1.3,0,2.1-0.5,2.1-1.7
							c0-0.7-0.4-1.3-1.3-1.3h-20.5c-3.2,0-3.5-2.6-3.6-5.1l0-10.6c-3.8-0.1-4-3.5-4-5.8c4.5-0.1,8.2-0.9,11.7-1.3
							c2.9,0,2.9,2.3,2.9,4.3v12c0,0.5,0.1,0.6,0.6,0.6h4.1l0-10.5c-0.1-1.8-0.6-3.4-1.1-4.6c5.4-1.2,7.6-1.7,8.6-1.7
							c2.8,0,3,2.5,3.1,5v14.1c0,0.3,0,0.4,0.4,0.5c4.8,0.5,6.3,3.4,6.3,6.6C211.8,246.2,207.9,248.1,204.4,248.1z M232.3,237.6
							c-2.9,0-5.1-0.8-6.4-4.2c-1.5,2.8-4.2,4.1-7.8,4.2c-4.5,0-8.2-2.1-8.2-6.9c0-5.3,4.9-7.2,9.9-7.2c2,0,3.3,0.3,4.7,0.7
							c-0.2-2.3-2-2.7-4-2.7c-2.4,0-5.2,0.6-6.7,1.8c-1.3-0.8-2.2-2.2-2.2-3.8c0-3.3,4.4-5.2,11.1-5.2c7.2,0,12.3,1.8,12.3,9.5
							l0,4.5c0,1.4,0.7,1.8,1.4,1.8c0.3,0,0.8-0.1,1.2-0.3c0.3,0.9,0.6,1.8,0.6,2.8C238.1,235.6,235.8,237.6,232.3,237.6z"/>
					</g>
				</g>
			</g>
			<g>
				<g>
					<g>
						<path fill="#0B0204" d="M185.8,129.9c-1.1-7.8-7-14.6-13.9-18.3c-7.1-3.9-15.8-6.3-24-4.6c-5.2,1.1-8.9,2.7-11.6,4.5
							c1.4-4.6,2.7-9.8,3.7-14c2.1-8.3,3.2-16.3,5.7-26c3.3-12.6,4.6-19.9,3.4-26.4c-1-2.1-2.2-3.2-3.7-3.8c2.4-3.6,2.9-8.3,3-12.6
							l0-0.5c-0.2-4.6,0.3-17.9-2-18.8c-1-0.2-8.5,12-9,14.4c-0.2,1.2-4.6-14.2-5.1-14.9c-0.3-0.5-1.2-0.7-1.7-0.4
							c-0.5,0.2-2.7,5.5-3.2,8.3c-0.9,3.1-1.9,6.5-1.9,9.8c-3.5,2.3-6,4.8-8.3,8.9c-1.3,2.3-2.4,5-3.8,7.4c-1.7,3.4-4.2,5.9-6.5,8.7
							c-1,1.5,0.2,3.7,1.9,2.9c5.9-2.5,12.2-0.8,18.2-1.8c4.7-0.7,9.5-1.3,13.8-3.9c0.2-0.1,0.3-0.2,0.5-0.2
							c0.7,1.1-0.6,1.9-2.4,2.7c-4,2.4-8.4,3.1-12.8,3.8c-0.6,0.7-1.1,1.4-1.6,2.1c-2.3,3.2-4.4,8.9-6.1,15.5
							c-1.2,0.3-2.4,0.6-3.3,0.8c-6.1,1.1-10.7,2.9-15.9,3c-0.8,0-3.9-2-5.5-0.2c-2.4,2.5,1.5,6.4,7.9,5.4c5.1-0.5,10.2-1.4,15.3-2
							c-0.3,1.5-0.6,3.1-0.9,4.6c-4.3,1.4-9.1,3.9-13.6,4l-0.7-0.2c-1.4-0.6-3.9-0.3-3.5,1.9c0.5,2.6,2.6,3.9,5.2,4
							c3.6,0.2,7.4-0.6,11.1-1.5c-1.2,6-2.3,10.9-2,14.9c-3.5,0.6-7.1,1.4-9.5,1.9c-6.7,1.1-11.8,2.9-17.5,2.9
							c-0.8,0-4.2-2.3-6.1-0.4c-2.7,2.6,1.4,7,8.5,6.2c6.1-0.5,12.1-1.4,18.2-1.9c2.7-0.2,5.7-0.6,8.6-0.6c0.3,0,0.7-0.1,1.1-0.1
							c0.4,0.5,0.8,0.8,1.2,1.3c-3.1,1.5-10.7,4.7-10.7,4.7c-5,1.4-10.8,4.9-16.3,5l-0.7-0.2c-1.5-0.6-4.3-0.2-3.8,2.1
							c0.6,2.9,2.9,4.3,5.7,4.3c5.2,0.2,11-1.5,16.1-2.9c5.4-1.2,13.5-2.7,18.8-3.5c0.7-0.1,1.5-0.7,2.3-1.5c0.3-0.1,0.6-0.3,1-0.5
							c0,0.1,0,0.1,0,0.1c1,2.4,3.2,3.1,8.9,3.9c3.8,0.6,7.5,0.7,11.1,1.7c3.6,1.1,8.9,2.3,11.5,5.1c1.1,0.9-0.4,2.2-1.2,1.2
							c-1.9-1.9-12.5-5-15.4-5.4c-3.1-0.5-21.4-2.4-44.4,4.8c-2.6,0.8-8.1,2-11.2,1.7c-6.4-0.5-10.4-3.7-12.6-6
							c-0.3,7.1,0.3,12,4.9,15.8c10,8.2,28,8.8,45.9,9.2c26,0.6,35.6-0.5,48.2-7.5C181,144.9,186.8,137.7,185.8,129.9z M131,34.6
							c-1,1.5-3.2,1.5-4.5,0.6c-1.5-1-2.2-3.5-1.1-5.1c0.9-1.4,3.1-1.9,4.3-1.1C131.5,30.1,132.1,33,131,34.6z M134.6,34
							c1.1-1.6,2.9-2.4,4.7-1.2c1.6,1.1,2.2,3.2,1.2,4.7c-1.2,1.7-3.6,1.6-5,0.6C134,37.1,133.5,35.5,134.6,34z M121.6,68.5
							c0.5-1.4,1.2-4,2.2-3.9c0.7,0.1,0.4,2.8,0.6,4c1.3-1.6,3.3-8.8,4.9-8.3c1,0.3-0.9,7.6-1.3,9.7c0.5-0.3,1.6-3.4,2.6-2.9
							c0.9,0.4-0.2,3.4-0.6,4.4c-0.2,0.5-1.5,5.7-1.8,6.3c0,0.1-0.1,0.2-0.1,0.3c-0.1,0.4-0.3,0.9-0.4,1.3c-1.6,0.8-6.8,2.9-9.2,3.9
							c0.4-2.3,0.9-4.4,1.3-6.4C120,74.6,120.6,71.5,121.6,68.5z M117.9,91.4c2.1-0.4,4.1-0.8,6.2-1.2c-0.4,1.3-0.8,2.5-1.1,3.7
							c-0.8,3.6-2.6,8.7-2.8,9.7c-0.8,4.4-3.9,6.2-5.2,3.2c-1.4-3.2,0.4-7.5,1.9-15.2C117.2,91.6,117.6,91.5,117.9,91.4z
							 M117.9,141.9c0.4,2.2-13.2,4.9-13.2,4.9c1.7,0.6,5.6,2,5.5,3c-0.1,1.3-4.2,1.4-4.8,1.4c-7.5,0.2-16.1-3.1-17.8-4
							c-3.6-1.7-5.3-2.5-7.2-4.9c-1.8-2.2-2.5-6.1-2.4-5.9c1.3,1.3,2.7,1.9,2.7,1.9c3.4,1.9,10.7,3.1,19.6,0.9
							c0.9-0.3,1.6-0.5,2.3-0.7c0.8-0.2,5.5-1.6,5.9-0.3c0.4,1.6-4.4,2.5-4.9,3.1C106.7,141.2,117.7,140.4,117.9,141.9z"/>
					</g>
				</g>
				<g>
					<g>
						<path fill="#0B0204" d="M126.7,31.5c-0.5,0.7,0,1.6,0.5,2c0.9,0.6,2.1,0.4,2.7-0.4c0.5-0.8,0.1-2-0.6-2.4
							C129,30.5,127.4,30.3,126.7,31.5z"/>
					</g>
				</g>
				<g>
					<g>
						<path fill="#0B0204" d="M138.4,34.2c-0.5-0.3-1.7-0.2-2,0.3c-0.3,0.5-0.1,1.6,0.2,1.8c0.9,0.6,1.8,0.1,2-0.3
							C139.1,35.4,138.9,34.6,138.4,34.2z"/>
					</g>
				</g>
			</g>
		</g>
	</g>
</g>
<g>
	<g>
		
			<rect x="86.9" y="35.5" transform="matrix(0.9149 -0.4038 0.4038 0.9149 -19.5656 42.7005)" fill="#FFCA05" width="9.1" height="64.4"/>
	</g>
</g>
<g>
	<g>
		
			<rect x="101" y="93.9" transform="matrix(0.9149 -0.4038 0.4038 0.9149 -29.1825 50.1829)" fill="#221F1F" width="6.9" height="0.8"/>
	</g>
</g>
<g>
	<g>
		
			<rect x="103.1" y="90.6" transform="matrix(0.9149 -0.4038 0.4038 0.9149 -27.8187 50.076)" fill="#221F1F" width="3.4" height="0.8"/>
	</g>
</g>
<g>
	<g>
		
			<rect x="102" y="88" transform="matrix(0.9149 -0.4038 0.4038 0.9149 -26.8691 49.3931)" fill="#221F1F" width="3.4" height="0.8"/>
	</g>
</g>
<g>
	<g>
		
			<rect x="100.8" y="85.4" transform="matrix(0.9149 -0.4038 0.4038 0.9149 -25.9195 48.7102)" fill="#221F1F" width="3.4" height="0.8"/>
	</g>
</g>
<g>
	<g>
		
			<rect x="99.7" y="82.8" transform="matrix(0.9149 -0.4038 0.4038 0.9149 -24.9698 48.0273)" fill="#221F1F" width="3.4" height="0.8"/>
	</g>
</g>
<g>
	<g>
		
			<rect x="95.2" y="80.9" transform="matrix(0.9149 -0.4038 0.4038 0.9149 -24.4344 46.7684)" fill="#221F1F" width="6.9" height="0.8"/>
	</g>
</g>
<g>
	<g>
		
			<rect x="97.4" y="77.6" transform="matrix(0.9149 -0.4038 0.4038 0.9149 -23.0706 46.6616)" fill="#221F1F" width="3.4" height="0.8"/>
	</g>
</g>
<g>
	<g>
		
			<rect x="96.2" y="75" transform="matrix(0.9149 -0.4038 0.4038 0.9149 -22.121 45.9787)" fill="#221F1F" width="3.4" height="0.8"/>
	</g>
</g>
<g>
	<g>
		
			<rect x="95.1" y="72.4" transform="matrix(0.9149 -0.4038 0.4038 0.9149 -21.1713 45.2958)" fill="#221F1F" width="3.4" height="0.8"/>
	</g>
</g>
<g>
	<g>
		
			<rect x="94" y="69.9" transform="matrix(0.9149 -0.4038 0.4038 0.9149 -20.2217 44.6129)" fill="#221F1F" width="3.4" height="0.8"/>
	</g>
</g>
<g>
	<g>
		
			<rect x="89.5" y="68" transform="matrix(0.9149 -0.4038 0.4038 0.9149 -19.6863 43.354)" fill="#221F1F" width="6.9" height="0.8"/>
	</g>
</g>
<g>
	<g>
		
			<rect x="91.7" y="64.7" transform="matrix(0.9149 -0.4038 0.4038 0.9149 -18.3225 43.2471)" fill="#221F1F" width="3.4" height="0.8"/>
	</g>
</g>
<g>
	<g>
		
			<rect x="90.5" y="62.1" transform="matrix(0.9149 -0.4038 0.4038 0.9149 -17.3729 42.5642)" fill="#221F1F" width="3.4" height="0.8"/>
	</g>
</g>
<g>
	<g>
		
			<rect x="89.4" y="59.5" transform="matrix(0.9149 -0.4038 0.4038 0.9149 -16.4232 41.8813)" fill="#221F1F" width="3.4" height="0.8"/>
	</g>
</g>
<g>
	<g>
		
			<rect x="88.2" y="56.9" transform="matrix(0.9149 -0.4038 0.4038 0.9149 -15.4736 41.1984)" fill="#221F1F" width="3.4" height="0.8"/>
	</g>
</g>
<g>
	<g>
		
			<rect x="83.8" y="55" transform="matrix(0.9149 -0.4038 0.4038 0.9149 -14.9382 39.9395)" fill="#221F1F" width="6.9" height="0.8"/>
	</g>
</g>
<g>
	<g>
		
			<rect x="85.9" y="51.7" transform="matrix(0.9149 -0.4038 0.4038 0.9149 -13.5744 39.8327)" fill="#221F1F" width="3.4" height="0.8"/>
	</g>
</g>
<g>
	<g>
		
			<rect x="84.8" y="49.1" transform="matrix(0.9149 -0.4038 0.4038 0.9149 -12.6248 39.1498)" fill="#221F1F" width="3.4" height="0.8"/>
	</g>
</g>
<g>
	<g>
		
			<rect x="83.7" y="46.5" transform="matrix(0.9149 -0.4038 0.4038 0.9149 -11.6751 38.4669)" fill="#221F1F" width="3.4" height="0.8"/>
	</g>
</g>
<g>
	<g>
		
			<rect x="82.5" y="43.9" transform="matrix(0.9149 -0.4038 0.4038 0.9149 -10.7255 37.784)" fill="#221F1F" width="3.4" height="0.8"/>
	</g>
</g>
<g>
	<g>
		
			<rect x="78.1" y="42" transform="matrix(0.9149 -0.4038 0.4038 0.9149 -10.1901 36.5251)" fill="#221F1F" width="6.9" height="0.8"/>
	</g>
</g>
<g>
	<g>
		<g>
			<path fill="#0B0204" d="M123.1,81.9c-4.2,1.4-16.5,6.6-21,6.6l-0.6-0.2c-1.4-0.6-3.8-0.3-3.4,1.9c0.5,2.6,2.5,3.9,5.1,3.9
				c3.5,0.2,8.9-0.9,12.5-1.8 M118,83.7"/>
		</g>
	</g>
</g>
<g>
	<g>
		<path fill="#EC1B33" d="M87.6,66.5c1.1-0.7,2.2-1.3,3.2-2.1c0.3-0.3,0.7-0.5,0.9-0.9c0.3-0.4,0.5-1,1-1.4
			c-0.4-0.4-0.7-0.7-1.1-1.1c-0.9,2-3.3,2.1-5.1,2.8c0.3,0.3,0.7,0.7,1,1c0.1-0.4,2.3-0.6,2.6-0.7c0.3,0,0.7,0,1-0.1
			c0.4-0.1,0.6-0.4,1-0.6c1-0.4,0.5-1.9-0.4-1.6c-0.5,0.2-0.9,0.5-1.4,0.6c-0.7,0.1-1.3,0.1-2,0.3c-1,0.3-2,0.5-2.4,1.5
			c-0.2,0.6,0.4,1.2,1,1c2.2-0.8,5-1.1,6.1-3.5c0.3-0.7-0.4-1.6-1.1-1.1c-0.9,0.6-1.1,1.6-1.9,2.2c-1,0.8-2.1,1.4-3.2,2.1
			C85.9,65.6,86.7,67,87.6,66.5L87.6,66.5z"/>
	</g>
</g>
</svg>
