<?xml version="1.0" encoding="UTF-8" standalone="no"?>
<svg
   xmlns:svg="http://www.w3.org/2000/svg"
   xmlns="http://www.w3.org/2000/svg"
   xml:space="preserve"
   viewBox="0 0 17 17"
   height="17"
   width="17"
   y="0px"
   x="0px"
   id="Layer_1"
   version="1.1">
<style
   id="style2"
   type="text/css">
	.st0{fill:#FF5200;}
</style>
<g
   transform="matrix(0.50342202,0,0,0.50342202,-0.10231559,-0.21118159)"
   id="g6">
	<path
   style="fill:#ff5200"
   id="path4"
   d="M 16.5,7.2 C 17.2,8 17.6,8 18.4,7.4 l 1,-0.8 c 3.2,-2.6 4.7,-4.2 5.4,-5.1 2,0.7 4.5,2.2 6.1,4.1 2.2,2.7 3.1,5.9 -1.9,10 l -3.4,2.8 1.8,2.2 c 0.6,0.7 2.9,3.7 5.9,5.1 -1,1.8 -2.5,4.2 -4.4,5.7 -2.8,2.3 -5.6,2.5 -9.7,-2.5 l -1.7,-2 C 16.8,26.1 16.4,26 15.6,26.7 l -1.5,1.2 C 11,30.4 9.4,32 8.7,32.9 6.7,32.2 4.2,30.7 2.6,28.8 0.4,26.1 -0.5,22.9 4.5,18.8 L 8.4,15.6 6.7,13.5 C 6.1,12.8 3.8,9.8 0.8,8.4 1.8,6.6 3.3,4.2 5.2,2.7 8,0.4 10.8,0.2 14.9,5.2 Z"
   class="st0" />
</g>
</svg>